<mxfile host="app.diagrams.net" modified="2023-06-25T07:05:59.388Z" agent="Mozilla/5.0 (Macintosh; Intel Mac OS X 10_15_7) AppleWebKit/537.36 (KHTML, like Gecko) Chrome/114.0.0.0 Safari/537.36" etag="y5ZXYObWM4usGW6gKqrC" version="21.5.0" type="github">
  <diagram name="第 1 页" id="YnzpbLVSBEW2W_aMIhlS">
    <mxGraphModel dx="1912" dy="2196" grid="1" gridSize="10" guides="1" tooltips="1" connect="1" arrows="1" fold="1" page="1" pageScale="1" pageWidth="827" pageHeight="1169" math="0" shadow="0">
      <root>
        <mxCell id="0" />
        <mxCell id="1" parent="0" />
        <mxCell id="6Jdx5kLrER20dMgVWngY-77" style="edgeStyle=orthogonalEdgeStyle;rounded=0;orthogonalLoop=1;jettySize=auto;html=1;exitX=0.5;exitY=1;exitDx=0;exitDy=0;exitPerimeter=0;entryX=0.5;entryY=0;entryDx=0;entryDy=0;" edge="1" parent="1" source="6Jdx5kLrER20dMgVWngY-1" target="6Jdx5kLrER20dMgVWngY-75">
          <mxGeometry relative="1" as="geometry" />
        </mxCell>
        <mxCell id="6Jdx5kLrER20dMgVWngY-1" value="开始" style="strokeWidth=2;html=1;shape=mxgraph.flowchart.start_2;whiteSpace=wrap;" vertex="1" parent="1">
          <mxGeometry x="340" y="-140" width="100" height="100" as="geometry" />
        </mxCell>
        <mxCell id="6Jdx5kLrER20dMgVWngY-86" style="edgeStyle=orthogonalEdgeStyle;rounded=0;orthogonalLoop=1;jettySize=auto;html=1;exitX=0.5;exitY=1;exitDx=0;exitDy=0;entryX=0.5;entryY=0;entryDx=0;entryDy=0;" edge="1" parent="1" source="6Jdx5kLrER20dMgVWngY-15" target="6Jdx5kLrER20dMgVWngY-85">
          <mxGeometry relative="1" as="geometry" />
        </mxCell>
        <mxCell id="6Jdx5kLrER20dMgVWngY-87" value="是" style="edgeLabel;html=1;align=center;verticalAlign=middle;resizable=0;points=[];" vertex="1" connectable="0" parent="6Jdx5kLrER20dMgVWngY-86">
          <mxGeometry x="-0.1733" y="-2" relative="1" as="geometry">
            <mxPoint y="-1" as="offset" />
          </mxGeometry>
        </mxCell>
        <mxCell id="6Jdx5kLrER20dMgVWngY-93" style="edgeStyle=orthogonalEdgeStyle;rounded=0;orthogonalLoop=1;jettySize=auto;html=1;exitX=1;exitY=0.5;exitDx=0;exitDy=0;entryX=1;entryY=0.5;entryDx=0;entryDy=0;" edge="1" parent="1" source="6Jdx5kLrER20dMgVWngY-15" target="6Jdx5kLrER20dMgVWngY-57">
          <mxGeometry relative="1" as="geometry">
            <Array as="points">
              <mxPoint x="700" y="150" />
              <mxPoint x="700" y="650" />
            </Array>
          </mxGeometry>
        </mxCell>
        <mxCell id="6Jdx5kLrER20dMgVWngY-94" value="否" style="edgeLabel;html=1;align=center;verticalAlign=middle;resizable=0;points=[];" vertex="1" connectable="0" parent="6Jdx5kLrER20dMgVWngY-93">
          <mxGeometry x="-0.1064" y="-1" relative="1" as="geometry">
            <mxPoint as="offset" />
          </mxGeometry>
        </mxCell>
        <mxCell id="6Jdx5kLrER20dMgVWngY-15" value="可以遍历下一个 Group？" style="rhombus;whiteSpace=wrap;html=1;strokeWidth=2;" vertex="1" parent="1">
          <mxGeometry x="270" y="110" width="240" height="80" as="geometry" />
        </mxCell>
        <mxCell id="6Jdx5kLrER20dMgVWngY-27" value="" style="edgeStyle=orthogonalEdgeStyle;rounded=0;orthogonalLoop=1;jettySize=auto;html=1;entryX=0.5;entryY=0;entryDx=0;entryDy=0;" edge="1" parent="1" source="6Jdx5kLrER20dMgVWngY-20" target="6Jdx5kLrER20dMgVWngY-51">
          <mxGeometry relative="1" as="geometry">
            <mxPoint x="390" y="470" as="targetPoint" />
          </mxGeometry>
        </mxCell>
        <mxCell id="6Jdx5kLrER20dMgVWngY-92" value="是" style="edgeLabel;html=1;align=center;verticalAlign=middle;resizable=0;points=[];" vertex="1" connectable="0" parent="6Jdx5kLrER20dMgVWngY-27">
          <mxGeometry x="-0.2952" y="2" relative="1" as="geometry">
            <mxPoint y="-1" as="offset" />
          </mxGeometry>
        </mxCell>
        <mxCell id="6Jdx5kLrER20dMgVWngY-83" style="edgeStyle=orthogonalEdgeStyle;rounded=0;orthogonalLoop=1;jettySize=auto;html=1;exitX=0;exitY=0.5;exitDx=0;exitDy=0;entryX=0;entryY=0.5;entryDx=0;entryDy=0;" edge="1" parent="1" source="6Jdx5kLrER20dMgVWngY-20" target="6Jdx5kLrER20dMgVWngY-15">
          <mxGeometry relative="1" as="geometry">
            <Array as="points">
              <mxPoint x="190" y="390" />
              <mxPoint x="190" y="150" />
            </Array>
          </mxGeometry>
        </mxCell>
        <mxCell id="6Jdx5kLrER20dMgVWngY-84" value="否" style="edgeLabel;html=1;align=center;verticalAlign=middle;resizable=0;points=[];" vertex="1" connectable="0" parent="6Jdx5kLrER20dMgVWngY-83">
          <mxGeometry x="-0.0436" y="3" relative="1" as="geometry">
            <mxPoint as="offset" />
          </mxGeometry>
        </mxCell>
        <mxCell id="6Jdx5kLrER20dMgVWngY-20" value="可以遍历下一个 type？" style="rhombus;whiteSpace=wrap;html=1;strokeWidth=2;" vertex="1" parent="1">
          <mxGeometry x="275" y="350" width="230" height="80" as="geometry" />
        </mxCell>
        <mxCell id="6Jdx5kLrER20dMgVWngY-91" style="edgeStyle=orthogonalEdgeStyle;rounded=0;orthogonalLoop=1;jettySize=auto;html=1;exitX=1;exitY=0.5;exitDx=0;exitDy=0;entryX=1;entryY=0.5;entryDx=0;entryDy=0;" edge="1" parent="1" source="6Jdx5kLrER20dMgVWngY-51" target="6Jdx5kLrER20dMgVWngY-20">
          <mxGeometry relative="1" as="geometry" />
        </mxCell>
        <mxCell id="6Jdx5kLrER20dMgVWngY-51" value="根据 type 类型对当前 Group 做水平融合，垂直融合或重计算" style="whiteSpace=wrap;html=1;strokeWidth=2;" vertex="1" parent="1">
          <mxGeometry x="220" y="500" width="340" height="60" as="geometry" />
        </mxCell>
        <mxCell id="6Jdx5kLrER20dMgVWngY-71" value="" style="edgeStyle=orthogonalEdgeStyle;rounded=0;orthogonalLoop=1;jettySize=auto;html=1;" edge="1" parent="1" source="6Jdx5kLrER20dMgVWngY-57" target="6Jdx5kLrER20dMgVWngY-70">
          <mxGeometry relative="1" as="geometry" />
        </mxCell>
        <mxCell id="6Jdx5kLrER20dMgVWngY-57" value="对当前计算图做输入融合" style="whiteSpace=wrap;html=1;strokeWidth=2;" vertex="1" parent="1">
          <mxGeometry x="330" y="620" width="120" height="60" as="geometry" />
        </mxCell>
        <mxCell id="6Jdx5kLrER20dMgVWngY-73" style="edgeStyle=orthogonalEdgeStyle;rounded=0;orthogonalLoop=1;jettySize=auto;html=1;exitX=0.5;exitY=1;exitDx=0;exitDy=0;entryX=0.5;entryY=0;entryDx=0;entryDy=0;entryPerimeter=0;" edge="1" parent="1" source="6Jdx5kLrER20dMgVWngY-70" target="6Jdx5kLrER20dMgVWngY-72">
          <mxGeometry relative="1" as="geometry" />
        </mxCell>
        <mxCell id="6Jdx5kLrER20dMgVWngY-74" value="是" style="edgeLabel;html=1;align=center;verticalAlign=middle;resizable=0;points=[];" vertex="1" connectable="0" parent="6Jdx5kLrER20dMgVWngY-73">
          <mxGeometry x="-0.3467" y="-1" relative="1" as="geometry">
            <mxPoint as="offset" />
          </mxGeometry>
        </mxCell>
        <mxCell id="6Jdx5kLrER20dMgVWngY-95" style="edgeStyle=orthogonalEdgeStyle;rounded=0;orthogonalLoop=1;jettySize=auto;html=1;exitX=0;exitY=0.5;exitDx=0;exitDy=0;entryX=0;entryY=0.5;entryDx=0;entryDy=0;" edge="1" parent="1" source="6Jdx5kLrER20dMgVWngY-70" target="6Jdx5kLrER20dMgVWngY-75">
          <mxGeometry relative="1" as="geometry">
            <Array as="points">
              <mxPoint x="90" y="790" />
              <mxPoint x="90" y="30" />
            </Array>
          </mxGeometry>
        </mxCell>
        <mxCell id="6Jdx5kLrER20dMgVWngY-96" value="否" style="edgeLabel;html=1;align=center;verticalAlign=middle;resizable=0;points=[];" vertex="1" connectable="0" parent="6Jdx5kLrER20dMgVWngY-95">
          <mxGeometry x="-0.0429" y="2" relative="1" as="geometry">
            <mxPoint y="1" as="offset" />
          </mxGeometry>
        </mxCell>
        <mxCell id="6Jdx5kLrER20dMgVWngY-70" value="计算图没有发生更新？" style="rhombus;whiteSpace=wrap;html=1;strokeWidth=2;" vertex="1" parent="1">
          <mxGeometry x="270" y="750" width="240" height="80" as="geometry" />
        </mxCell>
        <mxCell id="6Jdx5kLrER20dMgVWngY-72" value="结束" style="strokeWidth=2;html=1;shape=mxgraph.flowchart.terminator;whiteSpace=wrap;" vertex="1" parent="1">
          <mxGeometry x="340" y="880" width="100" height="60" as="geometry" />
        </mxCell>
        <mxCell id="6Jdx5kLrER20dMgVWngY-78" style="edgeStyle=orthogonalEdgeStyle;rounded=0;orthogonalLoop=1;jettySize=auto;html=1;exitX=0.5;exitY=1;exitDx=0;exitDy=0;entryX=0.5;entryY=0;entryDx=0;entryDy=0;" edge="1" parent="1" source="6Jdx5kLrER20dMgVWngY-75" target="6Jdx5kLrER20dMgVWngY-15">
          <mxGeometry relative="1" as="geometry" />
        </mxCell>
        <mxCell id="6Jdx5kLrER20dMgVWngY-75" value="遍历计算图中的所有 Group" style="whiteSpace=wrap;html=1;strokeWidth=2;" vertex="1" parent="1">
          <mxGeometry x="330" width="120" height="60" as="geometry" />
        </mxCell>
        <mxCell id="6Jdx5kLrER20dMgVWngY-88" style="edgeStyle=orthogonalEdgeStyle;rounded=0;orthogonalLoop=1;jettySize=auto;html=1;exitX=0.5;exitY=1;exitDx=0;exitDy=0;entryX=0.5;entryY=0;entryDx=0;entryDy=0;" edge="1" parent="1" source="6Jdx5kLrER20dMgVWngY-85" target="6Jdx5kLrER20dMgVWngY-20">
          <mxGeometry relative="1" as="geometry" />
        </mxCell>
        <mxCell id="6Jdx5kLrER20dMgVWngY-85" value="遍历 SequentialRegexNode2&lt;br style=&quot;border-color: var(--border-color);&quot;&gt;的 type 类型" style="whiteSpace=wrap;html=1;strokeWidth=2;" vertex="1" parent="1">
          <mxGeometry x="290" y="240" width="200" height="60" as="geometry" />
        </mxCell>
      </root>
    </mxGraphModel>
  </diagram>
</mxfile>
